<?xml version="1.0" encoding="UTF-8"?>
<svg width="48px" height="28px" viewBox="0 0 48 28" version="1.1" xmlns="http://www.w3.org/2000/svg" xmlns:xlink="http://www.w3.org/1999/xlink">
    <title>payment-icn-applepay</title>
    <g id="Page-1" stroke="none" stroke-width="1" fill="none" fill-rule="evenodd">
        <g id="PDP---EC-Area-and-Product-summary-base-Copy" transform="translate(-1127, -510)">
            <g id="payment-icn-applepay" transform="translate(1127, 510)">
                <rect id="frame" x="0" y="0" width="48" height="28"></rect>
                <g id="apple-pay-logo" transform="translate(2, 0)" fill-rule="nonzero">
                    <path d="M40.0596436,0 L3.94040324,0 C3.78997163,0 3.63927419,0 3.48911107,0.00087198521 C3.36217593,0.00177039421 3.23553586,0.00317085531 3.10889578,0.00660594856 C2.83270133,0.0140310347 2.55414102,0.0302288206 2.28140232,0.0789542972 C2.00430406,0.128525335 1.74645168,0.209382146 1.49489941,0.336691986 C1.24760037,0.461702957 1.02119536,0.625213396 0.824990965,0.820326692 C0.628701509,1.01543999 0.464207644,1.24012151 0.338471382,1.48620631 C0.210369259,1.73625467 0.128972973,1.99264475 0.0794493675,2.26829777 C0.0301676646,2.53948517 0.0137634686,2.81632726 0.00632030729,3.09057982 C0.00291771925,3.21646278 0.00145832797,3.34234573 0.000631605405,3.46820227 C0,3.61778737 0,3.76726677 0,3.91711611 L0,24.0831746 C0,24.2330239 0,24.3822417 0.000631605405,24.5321175 C0.00145832797,24.657974 0.00291771925,24.7838569 0.00632030729,24.9097399 C0.0137634686,25.183752 0.0301676646,25.4605941 0.0794493675,25.7317022 C0.128972973,26.0074609 0.210369259,26.2637453 0.338471382,26.5138201 C0.464207644,26.7599049 0.628701509,26.9848771 0.824990965,27.1796997 C1.02119536,27.3751301 1.24760037,27.5386141 1.49489941,27.663308 C1.74645168,27.7909614 2.00430406,27.8718446 2.28140232,27.9213892 C2.55414102,27.9697976 2.83270133,27.9862861 3.10889578,27.9937111 C3.23553586,27.9965649 3.36217593,27.998256 3.48911107,27.9988374 C3.63927419,28 3.78997163,28 3.94040324,28 L40.0596436,28 C40.2098093,28 40.3605094,28 40.5106433,27.9988374 C40.637286,27.998256 40.7639288,27.9965649 40.8911483,27.9937111 C41.166758,27.9862861 41.4452651,27.9697976 41.718671,27.9213892 C41.9953972,27.8718446 42.2533027,27.7909614 42.5048815,27.663308 C42.7524464,27.5386141 42.9781869,27.3751301 43.1747953,27.1796997 C43.3707631,26.9848771 43.5352543,26.7599049 43.6613122,26.5138201 C43.7897041,26.2637453 43.8710206,26.0074609 43.920305,25.7317022 C43.969616,25.4605941 43.9856187,25.183752 43.9930885,24.9097399 C43.9965442,24.7838569 43.9982482,24.657974 43.998833,24.5321175 C44,24.3822417 44,24.2330265 44,24.0831746 L44,3.91711611 C44,3.76726677 44,3.61778737 43.998833,3.46820227 C43.9982482,3.34234573 43.9965442,3.21646278 43.9930885,3.09057982 C43.9856161,2.81632726 43.969616,2.53948517 43.920305,2.26829777 C43.8710233,1.99264475 43.7897041,1.73625467 43.6613122,1.48620631 C43.5352543,1.24012151 43.3707631,1.01543999 43.1747953,0.820326692 C42.9781869,0.625213396 42.7524464,0.461702957 42.5048815,0.336691986 C42.2533027,0.209382146 41.9953972,0.128525335 41.718671,0.0789542972 C41.4452678,0.0302288206 41.1667606,0.0140310347 40.8911483,0.00660594856 C40.7639288,0.00317085531 40.637286,0.00177039421 40.5106433,0.00087198521 C40.3605094,0 40.2098093,0 40.0596436,0 L40.0596436,0 Z" id="XMLID_4_" fill="#000000"></path>
                    <path d="M40.0596436,0.933288413 L40.503971,0.934133974 C40.6243376,0.934979536 40.7447068,0.936274302 40.8657406,0.939550852 C41.0762784,0.945205544 41.322562,0.956541352 41.5521303,0.997445385 C41.7516868,1.03317036 41.9190489,1.08749768 42.0796644,1.16877727 C42.2382303,1.24886779 42.3835075,1.3538231 42.5103549,1.47973248 C42.6376862,1.60648742 42.7434083,1.75113127 42.8250438,1.91049317 C42.9063577,2.06890382 42.9606662,2.23447531 42.9963934,2.43429205 C43.0374371,2.6600041 43.0487879,2.90548114 43.054559,3.11605236 C43.0577994,3.23490659 43.0593944,3.35376081 43.0599819,3.47544239 C43.0610984,3.6225965 43.0610984,3.76967134 43.0610984,3.91711611 L43.0610984,24.0831746 C43.0610984,24.2306193 43.0610984,24.3774299 43.0599553,24.5277285 C43.0593944,24.6465563 43.0578021,24.7654105 43.0545324,24.8844761 C43.0487879,25.0947302 43.0374397,25.3400752 42.995891,25.568456 C42.9606662,25.7655247 42.9063869,25.9311226 42.8246212,26.090326 C42.7432222,26.2492915 42.6376622,26.3937768 42.5108866,26.519739 C42.3833188,26.6465733 42.23852,26.7512115 42.0780694,26.8320419 C41.9186528,26.9129251 41.7515778,26.9672022 41.5539884,27.0025546 C41.3197708,27.04404 41.0631678,27.0554551 40.8699114,27.0606605 C40.7483221,27.0633822 40.6273175,27.0650178 40.503365,27.0656018 C40.3556421,27.0667116 40.207393,27.0667116 40.0596462,27.0667116 L3.94040324,27.0667116 C3.93843611,27.0667116 3.93652216,27.0667116 3.93452845,27.0667116 C3.788483,27.0667116 3.64214513,27.0667116 3.4934414,27.0655754 C3.37219762,27.0650178 3.25121966,27.0634086 3.1342557,27.0607662 C2.9365866,27.0554551 2.67982411,27.0440664 2.44751773,27.0028189 C2.24822974,26.9671996 2.0811547,26.9129251 1.9196381,26.8309849 C1.76070268,26.750868 1.61601028,26.6463354 1.48838664,26.5192634 C1.36174657,26.3935919 1.25650559,26.2495557 1.17513588,26.0903524 C1.09368643,25.9313076 1.03919186,25.7652076 1.00336101,25.5657872 C0.961942476,25.3378556 0.950565072,25.0934883 0.944879028,24.8846611 C0.941633278,24.7650934 0.94027756,24.6455522 0.939506661,24.5266979 L0.938921841,24.1758164 L0.938921841,24.0831746 L0.938921841,3.91711611 L0.938921841,3.82447428 L0.939480078,3.47433259 C0.94027756,3.35476492 0.941633278,3.23522367 0.944879028,3.1157617 C0.950565072,2.90672306 0.961942476,2.66225012 1.00370393,2.43241596 C1.03921844,2.2347924 1.09368643,2.06869243 1.17556121,1.9088549 C1.25629292,1.75086703 1.36171999,1.60664596 1.48902729,1.48012883 C1.61582686,1.35403449 1.76099243,1.2492113 1.92094065,1.16835449 C2.08072937,1.08747125 2.24812076,1.03317036 2.4474114,0.997524657 C2.67703293,0.956514928 2.92348132,0.945205544 3.13454811,0.939524428 C3.25486149,0.936274302 3.37517488,0.934979536 3.49458445,0.934160398 L3.94040324,0.933288413 L40.0596436,0.933288413" id="XMLID_3_" fill="#FFFFFF"></path>
                    <g id="Group" transform="translate(5.9639, 7.6776)" fill="#000000">
                        <g id="Path">
                            <path d="M6.04777603,1.74002271 C6.42451696,1.27161867 6.68017094,0.642690093 6.61274387,0 C6.06124815,0.0272587861 5.38825345,0.361665114 4.99862256,0.830436436 C4.64877537,1.23186672 4.33913188,1.88712925 4.41985563,2.50287765 C5.03893791,2.55625635 5.65744867,2.19528354 6.04777603,1.74002271"></path>
                            <path d="M6.60571009,2.62310327 C5.70665328,2.56986989 4.9422353,3.13031064 4.51288983,3.13031064 C4.08330777,3.13031064 3.42584004,2.6499287 2.71473369,2.66287636 C1.78918456,2.67638949 0.930381967,3.19657359 0.460705195,4.02391051 C-0.505340058,5.67899129 0.205766286,8.13405508 1.14519426,9.48202531 C1.60140157,10.148909 2.15120929,10.8831972 2.87566548,10.856821 C3.56015454,10.8301224 3.82844595,10.4162518 4.66047177,10.4162518 C5.49188618,10.4162518 5.73356031,10.856821 6.45813346,10.8434743 C7.20953389,10.8301197 7.67929307,10.1762577 8.13549506,9.50872391 C8.65885032,8.74851135 8.87309374,8.01446363 8.88656852,7.97416734 C8.87309108,7.96082069 7.43765615,7.41344386 7.42434619,5.77211931 C7.41079432,4.39781513 8.55132322,3.74411953 8.6050017,3.70358014 C7.96093432,2.75669669 6.95459232,2.6499287 6.60571009,2.62310327"></path>
                        </g>
                        <g transform="translate(10.6583, 0.7632)">
                            <path d="M3.7757084,0 C5.72979345,0 7.09049373,1.33891744 7.09049373,3.28827737 C7.09049373,5.24459732 5.70179387,6.5904695 3.72670848,6.5904695 L1.56316224,6.5904695 L1.56316224,10.0105488 L0,10.0105488 L0,0 L3.7757084,0 L3.7757084,0 Z M1.56315958,5.28621216 L3.3567807,5.28621216 C4.71774946,5.28621216 5.49233002,4.55787726 5.49233002,3.29523475 C5.49233002,2.032727 4.71774946,1.31121737 3.36377993,1.31121737 L1.56315958,1.31121737 L1.56315958,5.28621216 L1.56315958,5.28621216 Z" id="Shape"></path>
                            <path d="M7.49891594,7.93634432 C7.49891594,6.6597844 8.48296035,5.8759199 10.2278527,5.77877282 L12.2376684,5.66088571 L12.2376684,5.09901279 C12.2376684,4.28731346 11.6862817,3.80171283 10.7652383,3.80171283 C9.89265789,3.80171283 9.34827039,4.21786645 9.2158087,4.87006118 L7.79210738,4.87006118 C7.87584029,3.55188642 9.00634485,2.58068515 10.820969,2.58068515 C12.6005916,2.58068515 13.7380954,3.51722897 13.7380954,4.98099091 L13.7380954,10.0105514 L12.2933991,10.0105514 L12.2933991,8.81039852 L12.2586688,8.81039852 C11.833013,9.62209784 10.9047019,10.1353959 9.94165782,10.1353959 C8.50395804,10.1353959 7.49891594,9.24742429 7.49891594,7.93634432 Z M12.2376684,7.27732433 L12.2376684,6.70153664 L10.4300435,6.81246637 C9.529732,6.874956 9.02034597,7.27036694 9.02034597,7.89472949 C9.02034597,8.53287469 9.55073235,8.94916043 10.3603144,8.94916043 C11.4140879,8.94916043 12.2376684,8.2276508 12.2376684,7.27732433 Z" id="Shape"></path>
                            <path d="M15.1020255,12.6953384 L15.1020255,11.4812707 C15.2134868,11.5089708 15.4646802,11.5089708 15.5904112,11.5089708 C16.2882607,11.5089708 16.6651851,11.2176617 16.8953781,10.4684546 C16.8953781,10.4545372 17.0281083,10.0244688 17.0281083,10.0175114 L14.3761737,2.71248968 L16.0090651,2.71248968 L17.8656873,8.65089657 L17.8934184,8.65089657 L19.7500432,2.71248968 L21.341205,2.71248968 L18.5912679,10.3920476 C17.9634213,12.1611655 17.2375695,12.7299958 15.7161421,12.7299958 C15.5904139,12.7299958 15.2134895,12.7160784 15.1020255,12.6953384 Z" id="Path"></path>
                        </g>
                    </g>
                </g>
            </g>
        </g>
    </g>
</svg>