<?xml version="1.0" encoding="UTF-8"?>
<svg width="61px" height="32px" viewBox="0 0 61 32" version="1.1" xmlns="http://www.w3.org/2000/svg" xmlns:xlink="http://www.w3.org/1999/xlink">
    <title>google-pay-mark_800</title>
    <g id="Base" stroke="none" stroke-width="1" fill="none" fill-rule="evenodd">
        <g id="google-pay-mark_800" fill-rule="nonzero">
            <path d="M44.7765957,0 L16.2234043,0 C7.30053191,0 0,7.2 0,16 L0,16 C0,24.8 7.30053191,32 16.2234043,32 L44.7765957,32 C53.6994681,32 61,24.8 61,16 L61,16 C61,7.2 53.6994681,0 44.7765957,0 Z" id="Base_1_" fill="#FFFFFF"></path>
            <path d="M44.7765957,1.296 C46.7801862,1.296 48.7269947,1.688 50.5602394,2.456 C52.3367021,3.2 53.9265957,4.264 55.3055851,5.616 C56.6764628,6.968 57.7553191,8.544 58.5097074,10.296 C59.2884309,12.104 59.6859043,14.024 59.6859043,16 C59.6859043,17.976 59.2884309,19.896 58.5097074,21.704 C57.7553191,23.456 56.6764628,25.024 55.3055851,26.384 C53.9347074,27.736 52.3367021,28.8 50.5602394,29.544 C48.7269947,30.312 46.7801862,30.704 44.7765957,30.704 L16.2234043,30.704 C14.2198138,30.704 12.2730053,30.312 10.4397606,29.544 C8.66329787,28.8 7.07340426,27.736 5.69441489,26.384 C4.32353723,25.032 3.24468085,23.456 2.49029255,21.704 C1.71156915,19.896 1.31409574,17.976 1.31409574,16 C1.31409574,14.024 1.71156915,12.104 2.49029255,10.296 C3.24468085,8.544 4.32353723,6.976 5.69441489,5.616 C7.06529255,4.264 8.66329787,3.2 10.4397606,2.456 C12.2730053,1.688 14.2198138,1.296 16.2234043,1.296 L44.7765957,1.296 M44.7765957,0 L16.2234043,0 C7.30053191,0 0,7.2 0,16 L0,16 C0,24.8 7.30053191,32 16.2234043,32 L44.7765957,32 C53.6994681,32 61,24.8 61,16 L61,16 C61,7.2 53.6994681,0 44.7765957,0 L44.7765957,0 Z" id="Outline" fill="#3C4043"></path>
            <g id="G_Pay_Lockup_1_" transform="translate(9.2879, 9.152)">
                <g id="Pay_Typeface_3_" transform="translate(18.2432, 0.872)" fill="#3C4043">
                    <path d="M1.55744681,7.112 L1.55744681,11.952 L0,11.952 L0,0 L4.12885638,0 C5.17526596,0 6.06755319,0.344 6.79760638,1.032 C7.54388298,1.72 7.91702128,2.56 7.91702128,3.552 C7.91702128,4.568 7.54388298,5.408 6.79760638,6.088 C6.07566489,6.768 5.18337766,7.104 4.12885638,7.104 L1.55744681,7.104 L1.55744681,7.112 Z M1.55744681,1.472 L1.55744681,5.64 L4.16130319,5.64 C4.77779255,5.64 5.29694149,5.432 5.7025266,5.024 C6.1162234,4.616 6.32712766,4.12 6.32712766,3.56 C6.32712766,3.008 6.1162234,2.52 5.7025266,2.112 C5.29694149,1.688 4.78590426,1.48 4.16130319,1.48 L1.55744681,1.48 L1.55744681,1.472 Z" id="Letter_p_3_"></path>
                    <path d="M11.9890957,3.504 C13.1409574,3.504 14.0494681,3.808 14.7146277,4.416 C15.3797872,5.024 15.712367,5.856 15.712367,6.912 L15.712367,11.952 L14.2279255,11.952 L14.2279255,10.816 L14.1630319,10.816 C13.5222074,11.752 12.662367,12.216 11.5916223,12.216 C10.675,12.216 9.9125,11.952 9.29601064,11.416 C8.67952128,10.88 8.3712766,10.216 8.3712766,9.416 C8.3712766,8.568 8.69574468,7.896 9.34468085,7.4 C9.99361702,6.896 10.8615691,6.648 11.9404255,6.648 C12.8651596,6.648 13.6276596,6.816 14.2198138,7.152 L14.2198138,6.8 C14.2198138,6.264 14.0089096,5.816 13.5789894,5.44 C13.1490691,5.064 12.6461436,4.88 12.0702128,4.88 C11.2022606,4.88 10.512766,5.24 10.0098404,5.968 L8.63896277,5.12 C9.39335106,4.04 10.512766,3.504 11.9890957,3.504 Z M9.97739362,9.44 C9.97739362,9.84 10.1477394,10.176 10.4965426,10.44 C10.837234,10.704 11.2428191,10.84 11.7051862,10.84 C12.362234,10.84 12.9462766,10.6 13.4573138,10.12 C13.9683511,9.64 14.2279255,9.08 14.2279255,8.432 C13.7412234,8.056 13.0679521,7.864 12.2,7.864 C11.5672872,7.864 11.0400266,8.016 10.6182181,8.312 C10.1882979,8.624 9.97739362,9 9.97739362,9.44 Z" id="Letter_a_3_"></path>
                    <polygon id="Letter_y_3_" points="24.180984 3.768 18.9894947 15.544 17.3833777 15.544 19.3139628 11.424 15.8908245 3.768 17.5861702 3.768 20.0521277 9.64 20.0845745 9.64 22.4856383 3.768"></polygon>
                </g>
                <g id="G_Mark_1_">
                    <path d="M13.605758,7.008 C13.605758,6.5072 13.5603324,6.028 13.4759707,5.5672 L6.94767287,5.5672 L6.94767287,8.2072 L10.7074468,8.208 C10.5549468,9.0864 10.0641888,9.8352 9.31223404,10.3344 L9.31223404,12.0472 L11.5502527,12.0472 C12.8570479,10.8544 13.605758,9.0912 13.605758,7.008 Z" id="Blue_500" fill="#4285F4"></path>
                    <path d="M9.31304521,10.3344 C8.69006649,10.7488 7.88781915,10.9912 6.94929521,10.9912 C5.13632979,10.9912 3.59835106,9.7864 3.04756649,8.1624 L0.738976064,8.1624 L0.738976064,9.9288 C1.88272606,12.1672 4.23349734,13.7032 6.94929521,13.7032 C8.82634309,13.7032 10.403258,13.0944 11.5510638,12.0464 L9.31304521,10.3344 Z" id="Green_500_1_" fill="#34A853"></path>
                    <path d="M2.83017287,6.852 C2.83017287,6.396 2.90723404,5.9552 3.04756649,5.5408 L3.04756649,3.7744 L0.738976064,3.7744 C0.26606383,4.7 0,5.7448 0,6.852 C0,7.9592 0.266875,9.004 0.738976064,9.9296 L3.04756649,8.1632 C2.90723404,7.7488 2.83017287,7.308 2.83017287,6.852 Z" id="Yellow_500_1_" fill="#FABB05"></path>
                    <path d="M6.94929521,2.712 C7.97380319,2.712 8.8912367,3.06 9.6156117,3.74 L11.5989229,1.7856 C10.3943351,0.6792 8.82390957,0 6.94929521,0 C4.23430851,0 1.88272606,1.536 0.738976064,3.7744 L3.04756649,5.5408 C3.59835106,3.9168 5.13632979,2.712 6.94929521,2.712 Z" id="Red_500" fill="#E94235"></path>
                </g>
            </g>
        </g>
    </g>
</svg>