<?xml version="1.0" encoding="UTF-8"?>
<svg width="48px" height="28px" viewBox="0 0 48 28" version="1.1" xmlns="http://www.w3.org/2000/svg" xmlns:xlink="http://www.w3.org/1999/xlink">
    <title>payment-icn-klarna</title>
    <g id="Page-1" stroke="none" stroke-width="1" fill="none" fill-rule="evenodd">
        <g id="PDP---EC-Area-and-Product-summary-base-Copy" transform="translate(-1191, -510)">
            <g id="payment-icn-klarna" transform="translate(1191, 510)">
                <rect id="frame" x="0" y="0" width="48" height="28"></rect>
                <rect id="bg-color" fill="#FFB3C7" fill-rule="nonzero" x="0" y="0" width="48" height="28" rx="4.83952"></rect>
                <g id="klarna-logo" transform="translate(3, 9)" fill="#0A0B09" fill-rule="nonzero">
                    <path d="M40.5824865,6.99552 C40.0960227,6.99098059 39.6549393,7.28170305 39.4656365,7.73164708 C39.2763336,8.18159111 39.3762541,8.70176093 39.7186411,9.04874895 C40.0610282,9.39573697 40.5781601,9.50091139 41.0280509,9.31505703 C41.4779417,9.12920267 41.771606,8.68908021 41.7716401,8.20064 C41.7731097,7.88250647 41.6486578,7.57681186 41.42565,7.35080726 C41.2026421,7.12480267 40.8993465,6.99700175 40.5824865,6.99552 L40.5824865,6.99552 Z M36.6703705,6.06368 C36.6370528,5.13588783 35.8782693,4.40102739 34.9535908,4.40102739 C34.0289123,4.40102739 33.2701288,5.13588783 33.2368111,6.06368 C33.2701288,6.99147217 34.0289123,7.72633261 34.9535908,7.72633261 C35.8782693,7.72633261 36.6370528,6.99147217 36.6703705,6.06368 Z M36.6770636,2.85824 L38.5734415,2.85824 L38.5734415,9.27024 L36.6770636,9.27024 L36.6770636,8.86032 C36.1248598,9.24311333 35.4695695,9.44783557 34.798534,9.44720148 C32.9615519,9.41363972 31.4898693,7.90891082 31.4898693,6.06424 C31.4898693,4.21956918 32.9615519,2.71484028 34.798534,2.68127818 C35.4695802,2.68057331 36.1248912,2.88530199 36.6770636,3.26816 L36.6770636,2.85824 Z M21.5138492,3.696 L21.5138492,2.85936 L19.5750817,2.85936 L19.5750817,9.27024 L21.5183113,9.27024 L21.5183113,6.272 C21.5183113,5.264 22.5981312,4.71968 23.3477582,4.71968 L23.3700685,4.71968 L23.3700685,2.85936 C22.6570137,2.84056132 21.973936,3.14743116 21.5127337,3.69376 L21.5138492,3.696 Z M16.6825477,6.0648 C16.64923,5.13700783 15.8904464,4.40214739 14.965768,4.40214739 C14.0410895,4.40214739 13.2823059,5.13700783 13.2489883,6.0648 C13.2823059,6.99259217 14.0410895,7.72745261 14.965768,7.72745261 C15.8904464,7.72745261 16.64923,6.99259217 16.6825477,6.0648 Z M16.6892408,2.85936 L18.5856187,2.85936 L18.5856187,9.27024 L16.6892408,9.27024 L16.6892408,8.86032 C16.137037,9.24311333 15.4817467,9.44783557 14.8107112,9.44720148 C12.9737291,9.41363972 11.5020465,7.90891082 11.5020465,6.06424 C11.5020465,4.21956918 12.9737291,2.71484028 14.8107112,2.68127818 C15.4817574,2.68057331 16.1370683,2.88530199 16.6892408,3.26816 L16.6892408,2.85824 L16.6892408,2.85936 Z M28.0920494,2.688 C27.3336961,2.64364738 26.6026697,2.97917406 26.1398957,3.584 L26.1398957,2.85936 L24.2535575,2.85936 L24.2535575,9.27024 L26.1633216,9.27024 L26.1633216,5.90128 C26.1299346,5.5107686 26.2679985,5.12508083 26.5413449,4.84525453 C26.8146912,4.56542824 27.196082,4.41934721 27.585605,4.44528 C28.4177802,4.44528 28.8974523,4.94928 28.8974523,5.88448 L28.8974523,9.26688 L30.7938302,9.26688 L30.7938302,5.19344 C30.790511,4.49330614 30.4977421,3.82600061 29.9854729,3.35095844 C29.4732037,2.87591628 28.7874481,2.63580759 28.0920494,2.688 Z M8.71106755,9.27024 L10.6944557,9.27024 L10.6944557,0 L8.71106755,0 L8.71106755,9.27024 Z M0,9.27248 L2.10051738,9.27248 L2.10051738,0 L0,0 L0,9.27248 Z M7.34455996,0 C7.35480249,1.97162417 6.58200018,3.86604997 5.1971909,5.264 L8.09753353,9.2736 L5.50618894,9.2736 L2.35150857,4.91456 L3.16583554,4.29632 C4.51059681,3.28195714 5.29822994,1.68872999 5.28977876,0 L7.34455996,0 L7.34455996,0 Z" id="Path_504"></path>
                </g>
            </g>
        </g>
    </g>
</svg>