<?xml version="1.0" encoding="UTF-8"?>
<svg width="48px" height="28px" viewBox="0 0 48 28" version="1.1" xmlns="http://www.w3.org/2000/svg" xmlns:xlink="http://www.w3.org/1999/xlink">
    <title>payment-icn-mastercard</title>
    <g id="Page-1" stroke="none" stroke-width="1" fill="none" fill-rule="evenodd">
        <g id="PDP---EC-Area-and-Product-summary-base-Copy" transform="translate(-1063, -510)">
            <g id="payment-icn-mastercard" transform="translate(1063, 510)">
                <rect id="frame" x="0" y="0" width="48" height="28"></rect>
                <g id="mastercard-logo" transform="translate(12, 7)" fill-rule="nonzero">
                    <path d="M24,7 C23.9972045,9.90885957 22.2322064,12.5127904 19.5663923,13.5409745 C16.9005783,14.5691587 13.8896154,13.8072796 12.0029688,11.6271635 C14.2921264,8.98486682 14.2921264,5.01513318 12.0029688,2.37283654 C13.8896154,0.192720394 16.9005783,-0.569158669 19.5663923,0.459025486 C22.2322064,1.48720964 23.9972045,4.09114043 24,7 L24,7 Z" id="Path" fill="#F79E1B"></path>
                    <ellipse id="Oval" fill="#FF5F00" cx="12.0029688" cy="7" rx="1.71798642" ry="4.62716346"></ellipse>
                    <path d="M10.2849824,7 C10.2879471,8.70420091 10.8986378,10.3490134 12.0029688,11.6271635 C10.1172201,13.8119954 7.10332456,14.5770198 4.43466028,13.5482455 C1.76599601,12.5194712 0,9.91179111 0,7 C0,4.08820889 1.76599601,1.48052875 4.43466028,0.451754454 C7.10332456,-0.577019843 10.1172201,0.188004555 12.0029688,2.37283654 C10.8986378,3.65098656 10.2879471,5.29579909 10.2849824,7 Z" id="Path" fill="#EB001B"></path>
                </g>
            </g>
        </g>
    </g>
</svg>