<?xml version="1.0" encoding="UTF-8"?>
<svg width="48px" height="28px" viewBox="0 0 48 28" version="1.1" xmlns="http://www.w3.org/2000/svg" xmlns:xlink="http://www.w3.org/1999/xlink">
    <title>payment-icn-paypal</title>
    <g id="Page-1" stroke="none" stroke-width="1" fill="none" fill-rule="evenodd">
        <g id="PDP---EC-Area-and-Product-summary-base-Copy" transform="translate(-1255, -510)">
            <g id="payment-icn-paypal" transform="translate(1255, 510)">
                <rect id="frame" fill="#FFFFFF" x="0" y="0" width="48" height="28" rx="3"></rect>
                <g id="paypal-logo" transform="translate(5, 9)" fill-rule="nonzero">
                    <path d="M6.71724376,0.790988317 C6.14253308,0.241963853 5.35257139,-0.0314180442 4.55566485,0.0429310939 L1.68751915,0.0429310939 C1.48105095,0.0466752343 1.30650912,0.194661323 1.2719548,0.39526922 L0.00163793506,7.84409927 C-0.0066530845,7.91624305 0.0167925692,7.98843332 0.0660510365,8.04243024 C0.115309504,8.09642716 0.185669003,8.1270657 0.259352262,8.12660975 L1.68751915,8.12660975 C1.86284757,8.11909367 2.0159045,8.0072401 2.07409064,7.84409927 L2.38871688,5.81260017 C2.41074753,5.61131098 2.58378375,5.4590949 2.7892479,5.46026204 L3.72775757,5.46026204 C4.55989864,5.5550047 5.39460108,5.30499947 6.03246363,4.76996987 C6.67032619,4.23494026 7.05406293,3.46293686 7.09200334,2.63838282 C7.2544087,1.99836392 7.11686046,1.32031358 6.71724376,0.790988317 L6.71724376,0.790988317 Z M4.89821014,2.75159657 C4.74036011,3.79591408 3.92426475,3.79591408 3.15112177,3.79591408 L2.70763836,3.79591408 L3.00830508,1.83530583 C3.02852636,1.71683401 3.13023652,1.62853485 3.25205988,1.62369134 L3.45286229,1.62369134 C3.98225047,1.62369134 4.49767912,1.62369134 4.74143392,1.91995162 C4.92154942,2.15829775 4.9794453,2.46541586 4.89821014,2.75159657 Z" id="Path_497" fill="#253B80"></path>
                    <path d="M13.4027829,2.70927367 L11.9713946,2.70927367 C11.8520256,2.71583126 11.7493164,2.79468599 11.7136803,2.90713322 L11.7136803,3.31660726 L11.613816,3.16107061 C11.1749432,2.72541024 10.55756,2.51210299 9.93867284,2.58230498 C8.31943278,2.61912174 6.97245402,3.82025644 6.77415568,5.4041842 C6.62759925,6.16520375 6.82046302,6.95156477 7.30354385,7.562652 C7.75743338,8.05789274 8.41827016,8.31843161 9.09358461,8.26838633 C9.82723685,8.27603823 10.5315909,7.98510397 11.0404016,7.46425126 L11.0404016,7.8737253 C11.0321228,8.00873674 11.132697,8.12644736 11.2691231,8.14141763 L12.5437352,8.14141763 C12.7501607,8.15109383 12.9301686,8.0044315 12.9592995,7.80283445 L13.718483,2.99177901 C13.7519508,2.90523653 13.7282804,2.80732957 13.6588084,2.74495018 C13.5893365,2.68257079 13.4882075,2.66841937 13.4038567,2.70927367 L13.4027829,2.70927367 Z M9.82377521,6.78602682 C9.46952875,6.80525804 9.12441075,6.67116615 8.87882268,6.41887568 C8.66756838,6.12937803 8.58499296,5.76762743 8.65010121,5.41688107 C8.74470278,4.61925988 9.42653281,4.01542217 10.2414872,4.00752857 C10.6008506,3.9914165 10.9482879,4.1365243 11.1864397,4.40218959 C11.4240886,4.67347244 11.5147973,5.04083316 11.4301945,5.38937119 C11.3415049,6.19403435 10.6450945,6.79950858 9.82377521,6.78602682 L9.82377521,6.78602682 Z" id="Path_498" fill="#253B80"></path>
                    <path d="M20.9366317,2.70927367 L19.502022,2.70927367 C19.3630034,2.70738954 19.2329376,2.77667586 19.1584029,2.8923202 L17.1965526,5.71419943 L16.3664977,2.96321106 C16.311276,2.79004403 16.1501383,2.6708555 15.9659667,2.66695003 L14.5335045,2.66695003 C14.4533911,2.6667545 14.3782946,2.70535994 14.3326262,2.77021775 C14.2869578,2.83507556 14.2765489,2.91790426 14.3047831,2.99177901 L15.8650285,7.562652 L14.4336402,9.61848677 C14.3796378,9.69206729 14.3723656,9.78936599 14.414846,9.86994782 C14.4573264,9.95052965 14.5422956,10.0006163 14.6344426,9.99939286 L16.065831,9.99939286 C16.2027358,10.0070065 16.3334887,9.94258818 16.4094501,9.83010126 L21.1342127,3.04468264 C21.1669227,2.97370434 21.1626391,2.89149864 21.1227233,2.82419467 C21.0828076,2.75689071 21.012225,2.71286064 20.9334103,2.70609945 L20.9366317,2.70927367 Z" id="Path_499" fill="#253B80"></path>
                    <path d="M27.8057923,0.790988317 C27.230074,0.243571605 26.4408861,-0.0295424974 25.6442134,0.0429310939 L22.6804987,0.0429310939 C22.4778294,0.0423687057 22.3091266,0.196131788 22.2939272,0.39526922 L21.0773008,7.84409927 C21.0690098,7.91624305 21.0924554,7.98843332 21.1417139,8.04243024 C21.1909724,8.09642716 21.2613319,8.1270657 21.3350151,8.12660975 L22.848013,8.12660975 C22.9899119,8.11996664 23.1054812,8.01194235 23.1196868,7.87266723 L23.4633059,5.74276739 C23.4915602,5.54469216 23.6609107,5.39571826 23.863837,5.39042926 L24.8087895,5.39042926 C25.6391706,5.47657428 26.4690815,5.22346844 27.1048828,4.69016775 C27.7406842,4.15686707 28.1267622,3.39001951 28.1730353,2.56855003 C28.3014914,1.95075181 28.1667753,1.30808292 27.8004233,0.790988317 L27.8057923,0.790988317 Z M25.9727992,2.79497754 C25.8299825,3.83929505 25.0138871,3.83929505 24.2257108,3.83929505 L23.7822274,3.83929505 L24.0968537,1.8786868 C24.1004381,1.81867848 24.1282038,1.76256787 24.173978,1.72282923 C24.2197522,1.68309059 24.2797412,1.66301742 24.3406085,1.66707231 L24.5553704,1.66707231 C25.0847586,1.66707231 25.5862277,1.66707231 25.843942,1.96333259 C26.0016851,2.19572057 26.0487385,2.48433556 25.9727992,2.75371271 L25.9727992,2.79497754 Z" id="Path_500" fill="#179BD7"></path>
                    <path d="M34.4784458,2.70927367 L33.0470575,2.70927367 C32.9242801,2.70629431 32.8164275,2.78909792 32.7893431,2.90713322 L32.7893431,3.31660726 L32.6927003,3.16107061 C32.2605603,2.72392334 31.646481,2.50997469 31.0315167,2.58230498 C29.4098082,2.6160131 28.0592195,3.81791982 27.8605566,5.4041842 C27.6979322,6.16551746 27.8924239,6.95851581 28.3899448,7.562652 C28.8366307,8.05905236 29.4937224,8.32030883 30.1649522,8.26838633 C30.9028198,8.27512123 31.611476,7.98465295 32.1268026,7.46425126 L32.1268026,7.8737253 C32.1188074,7.94204035 32.1409137,8.01045547 32.1875217,8.06164052 C32.2341297,8.11282557 32.3007683,8.14187037 32.3705574,8.14141763 L33.6483909,8.14141763 C33.8491535,8.14342345 34.0204042,7.99865915 34.0489219,7.80283445 L34.7501196,2.99177901 C34.7645814,2.91605447 34.7412937,2.83809077 34.6875064,2.78215898 C34.6337191,2.72622719 34.5559634,2.69911905 34.4784458,2.70927367 L34.4784458,2.70927367 Z M30.9133976,6.78602682 C30.5547092,6.80733523 30.2044635,6.67323212 29.9544855,6.41887568 C29.7416753,6.13011109 29.6635856,5.76577523 29.7397236,5.41688107 C29.8205927,4.6185287 30.500756,4.00955111 31.3150024,4.0064705 C31.6849865,3.97412724 32.0474959,4.12289393 32.2847989,4.40445587 C32.522102,4.68601781 32.6039307,5.06446174 32.5037098,5.41688107 C32.4147485,6.21029184 31.7243366,6.8046294 30.9144714,6.78496875 L30.9133976,6.78602682 Z" id="Path_501" fill="#179BD7"></path>
                    <path d="M37.7567868,0.000608195872 L36.3243246,0.000608195872 C36.2024856,-0.00816490008 36.095157,0.0789553551 36.0805698,0.198467744 L34.9348149,7.84515735 C34.9219713,7.91580206 34.9418623,7.9884046 34.9890409,8.04308341 C35.0362196,8.09776222 35.1057419,8.12878729 35.1785697,8.12769224 L36.3951961,8.12769224 C36.5959587,8.1296685 36.7672094,7.98490421 36.7957271,7.78907951 L37.998394,0.269358598 C38.0063891,0.201043552 37.9842828,0.132628435 37.9376748,0.0814433859 C37.8910669,0.0302583365 37.8244282,0.00121353099 37.7546392,0.00166626832 L37.7567868,0.000608195872 Z" id="Path_502" fill="#179BD7"></path>
                </g>
            </g>
        </g>
    </g>
</svg>