<?xml version="1.0" encoding="UTF-8"?>
<svg width="48px" height="28px" viewBox="0 0 48 28" version="1.1" xmlns="http://www.w3.org/2000/svg" xmlns:xlink="http://www.w3.org/1999/xlink">
    <title>payment-icn-visa</title>
    <g id="Page-1" stroke="none" stroke-width="1" fill="none" fill-rule="evenodd">
        <g id="PDP---EC-Area-and-Product-summary-base-Copy" transform="translate(-999, -510)">
            <g id="payment-icn-visa" transform="translate(999, 510)">
                <rect id="frame" fill="#FFFFFF" x="0" y="0" width="48" height="28" rx="3"></rect>
                <g id="visa-logo" transform="translate(5, 8)" fill="#1434CB" fill-rule="nonzero">
                    <path d="M14.4277292,0.212101664 L9.45269792,11.818475 L6.20686458,11.818475 L3.75863542,2.55605728 C3.61,1.98555025 3.48076042,1.77654496 3.02871875,1.53618888 C2.29108333,1.14469101 1.0723125,0.777577087 0,0.549606502 L0.0728333333,0.212101664 L5.29763542,0.212101664 C5.963625,0.212101664 6.56232292,0.645594117 6.71353125,1.39549736 L8.00652083,8.111534 L11.2020833,0.212101664 L14.4277292,0.212101664 Z M27.1456562,8.02909302 C27.1587187,4.96581086 22.8136562,4.79705844 22.8435417,3.42865437 C22.8528437,3.01219198 23.258375,2.5694104 24.1460312,2.45639272 C24.586,2.40007741 25.7982396,2.35711521 27.1731667,2.97580957 L27.7124896,0.514578764 C26.9736667,0.252354535 26.0230729,0 24.8403229,0 C21.8052708,0 19.6693542,1.57760289 19.6513437,3.83660173 C19.63175,5.50748291 21.1758958,6.43987873 22.33925,6.99509741 C23.5360521,7.5636692 23.937625,7.92904141 23.9330729,8.43762095 C23.9245625,9.21616566 22.9785208,9.55986324 22.0944271,9.57340988 C20.5510729,9.59663269 19.6555,9.16507547 18.9416146,8.8405367 L18.3850729,11.3832409 C19.1025208,11.7050703 20.4267812,11.9858728 21.7997292,12 C25.0255729,12 27.1357604,10.441943 27.1456562,8.02909302 M35.1600938,11.8186686 L38,11.8186686 L35.5210938,0.212101664 L32.8998854,0.212101664 C32.3104896,0.212101664 31.8133229,0.547671268 31.5932396,1.0636047 L26.9855417,11.818475 L30.2098021,11.818475 L30.8500625,10.0846987 L34.7895938,10.0846987 L35.1602917,11.818475 L35.1600938,11.8186686 Z M31.7339583,7.70610244 L33.3501458,3.34834215 L34.2803542,7.70610244 L31.7341563,7.70610244 L31.7339583,7.70610244 Z M18.8151458,0.212101664 L16.2760729,11.818475 L13.2055938,11.818475 L15.7456563,0.212101664 L18.8151458,0.212101664 L18.8151458,0.212101664 Z" id="Shape"></path>
                </g>
            </g>
        </g>
    </g>
</svg>